<svg version="1.1" xmlns="http://www.w3.org/2000/svg" xmlns:xlink="http://www.w3.org/1999/xlink" width="481" height="366.5" viewBox="0,0,481,366.5"><defs><linearGradient x1="240.5" y1="-8" x2="240.5" y2="357" gradientUnits="userSpaceOnUse" id="color-1"><stop offset="0" stop-color="#fff400"/><stop offset="1" stop-color="#ff6c00"/></linearGradient><linearGradient x1="241.5" y1="179" x2="241.5" y2="330" gradientUnits="userSpaceOnUse" id="color-2"><stop offset="0" stop-color="#fff400"/><stop offset="1" stop-color="#ff6c00"/></linearGradient></defs><g transform="translate(0.5,8)"><g data-paper-data="{&quot;isPaintingLayer&quot;:true}" fill-rule="nonzero" stroke-linejoin="miter" stroke-miterlimit="10" stroke-dasharray="" stroke-dashoffset="0" style="mix-blend-mode: normal"><path d="M0.5,357v-365h480v365z" fill="url(#color-1)" stroke="none" stroke-width="0" stroke-linecap="butt"/><path d="M320.83898,254.5c0,41.6975 -35.52128,75.5 -79.33898,75.5c-43.81771,0 -79.33899,-33.8025 -79.33899,-75.5c0,-41.6975 35.52128,-75.5 79.33899,-75.5c43.81771,0 79.33898,33.8025 79.33898,75.5z" fill="url(#color-2)" stroke="none" stroke-width="0" stroke-linecap="butt"/><path d="M-0.5,358.5v-91h481v91z" fill="#4dce00" stroke="none" stroke-width="0" stroke-linecap="butt"/><path d="M54.5,321.5l9,-10l-6,13l12,-19l6,17l16,-9v14" fill="none" stroke="#145e00" stroke-width="1.5" stroke-linecap="round"/><path d="M221.5,311.5l-3,-16l14,10l3,-14l8,8" fill="none" stroke="#145e00" stroke-width="1.5" stroke-linecap="round"/><path d="M302.5,323.5l14,-17v18" fill="none" stroke="#145e00" stroke-width="1.5" stroke-linecap="round"/><path d="M384.5,311.5l-8,-21l19,14" fill="none" stroke="#145e00" stroke-width="1.5" stroke-linecap="round"/><path d="M423.5,322.5l21,-16v23" fill="none" stroke="#145e00" stroke-width="1.5" stroke-linecap="round"/><path d="M150.5,300.5l-7,-23l22,14" fill="none" stroke="#145e00" stroke-width="1.5" stroke-linecap="round"/><path d="M165.5,330.5l18,-10l-1,19" fill="none" stroke="#145e00" stroke-width="1.5" stroke-linecap="round"/><path d="M26.5,291.5l1,-13l20,11" fill="none" stroke="#145e00" stroke-width="1.5" stroke-linecap="round"/><path d="M334.5,286.5v-8l11,8" fill="none" stroke="#145e00" stroke-width="1.5" stroke-linecap="round"/><path d="M91.5,288l9,-12l5,13" fill="none" stroke="#145e00" stroke-width="2" stroke-linecap="round"/><path d="M272.5,291l-1,-11l12,8" fill="none" stroke="#145e00" stroke-width="2" stroke-linecap="round"/><path d="M246.5,329l20,-14l2,21" fill="none" stroke="#145e00" stroke-width="2" stroke-linecap="round"/><path d="M342.5,338l2,-17l10,15" fill="none" stroke="#145e00" stroke-width="2" stroke-linecap="round"/><path d="M417.5,286l13,-8l-1,15" fill="none" stroke="#145e00" stroke-width="2" stroke-linecap="round"/><path d="M455.5,290l4,-16l7,18" fill="none" stroke="#145e00" stroke-width="2" stroke-linecap="round"/><path d="M17.5,339l9,-18l6,16" fill="none" stroke="#145e00" stroke-width="2" stroke-linecap="round"/><path d="M110.5,332l14,-17l1,17" fill="none" stroke="#145e00" stroke-width="2" stroke-linecap="round"/></g></g></svg>