<svg version="1.1" xmlns="http://www.w3.org/2000/svg" xmlns:xlink="http://www.w3.org/1999/xlink" width="208.02518" height="91.97319" viewBox="0,0,208.02518,91.97319"><g transform="translate(-135.98741,-134.01343)"><g data-paper-data="{&quot;isPaintingLayer&quot;:true}" fill-rule="nonzero" stroke-linecap="butt" stroke-linejoin="miter" stroke-miterlimit="10" stroke-dasharray="" stroke-dashoffset="0" style="mix-blend-mode: normal"><path d="M136.73741,225.23662v-90.47319h206.52518v90.47319z" fill="#ffffca" stroke="#000000" stroke-width="1.5"/><path d="M179.6056,223.81557v-87.6311h120.78881v87.6311z" fill="#00f7ff" stroke="#000000" stroke-width="3"/><g fill="#000000" stroke="none" stroke-width="0"><path d="M151.80573,195.71546v-36.94717h12.7894v36.94717z"/><path d="M139.99004,170.16299h36.94716v12.7894h-36.94716z"/></g><path d="M311.67327,157.82093c0,-6.27857 5.08979,-11.36836 11.36836,-11.36836c6.27857,0 11.36836,5.08979 11.36836,11.36836c0,6.27857 -5.08979,11.36836 -11.36836,11.36836c-6.27857,0 -11.36836,-5.08979 -11.36836,-11.36836z" fill="#ff0000" stroke="#000000" stroke-width="0.5"/><path d="M310.9891,190.29446c0,-6.54018 5.30185,-11.84204 11.84203,-11.84204c6.54018,0 11.84204,5.30186 11.84204,11.84204c0,6.54018 -5.30186,11.84205 -11.84204,11.84205c-6.54018,0 -11.84203,-5.30187 -11.84203,-11.84205z" fill="#003aff" stroke="#000000" stroke-width="0.5"/><path d="M309.80757,212.17844l1.11642,-2.08877l8.77285,4.68893l-1.11642,2.08877z" fill="#000000" stroke="none" stroke-width="0"/><path d="M324.75489,212.44162l1.11642,-2.08877l8.77285,4.68894l-1.11642,2.08877z" fill="#000000" stroke="none" stroke-width="0"/><g stroke="none" stroke-width="1"><path d="M328.25651,163.6012c-0.05059,0.48986 -0.24377,0.95211 -0.55424,1.33388c-0.45536,0.56115 -0.98661,0.96131 -1.57765,1.18899c-0.54275,0.20928 -1.14759,0.28057 -1.89272,0.22308c-0.08739,-0.0069 -0.15409,-0.0092 -0.20238,-0.01149c-0.0092,0.0023 -0.01839,0.0046 -0.0299,0.0069c-0.40017,0.10579 -0.73364,0.15408 -1.05101,0.15408c-0.28517,0 -0.53815,-0.04829 -0.75663,-0.11269c-0.31737,0.0207 -0.57265,0.02989 -0.77963,0.02989h-0.96821c-0.43926,-0.0184 -1.75014,-0.069 -2.55507,-1.18209c-0.10809,-0.14258 -0.30817,-0.42316 -0.46225,-0.80953c-0.06669,-0.13568 -0.12649,-0.27597 -0.17479,-0.42546c-0.13799,-0.41396 -0.16788,-0.85552 -0.08279,-1.28328c0.31737,-1.62825 1.55005,-2.41018 2.76434,-2.65395c-0.0138,-1.19589 -0.0529,-2.65625 -0.11959,-4.37189c-0.0023,-0.06209 -0.0023,-0.12649 0,-0.19089c-0.44156,-0.20468 -0.82792,-0.51055 -1.12919,-0.90382c-0.40936,-0.52205 -0.63244,-1.16829 -0.63244,-1.83293c0,-1.16139 0.63704,-2.1572 1.89502,-2.96212c0.0115,-0.0069 0.02069,-0.0138 0.0322,-0.0184c0.08279,-0.0529 0.14259,-0.09429 0.18628,-0.12418c0.14949,-0.24377 0.34037,-0.46226 0.56574,-0.64394c0.73363,-0.59334 1.59145,-0.90611 2.47917,-0.90611c1.60525,0 2.89314,1.0602 3.21051,2.64015c0.08509,0.43006 0.05749,0.87392 -0.07819,1.28788c-0.0253,0.29897 -0.0598,0.85552 -0.09659,1.87432c-0.0023,0.11729 -0.0092,0.27138 -0.023,0.53585c-0.0092,0.13568 -0.0138,0.22997 -0.0161,0.28287v2.06291c0.0023,0.069 0.0115,0.19778 0.023,0.38407c0.03449,0.49905 0.03679,0.56115 0.03679,0.66234v2.27678c0.64394,0.28057 1.20279,0.77273 1.61675,1.43737c0.50365,0.80032 0.41856,1.61215 0.37257,2.05141z" fill="#00ff2a"/><path d="M325.74054,163.33879c-0.17548,0.21572 -0.35071,0.35739 -0.52596,0.425c-0.17548,0.06739 -0.43834,0.08762 -0.78906,0.06071c-0.39119,-0.02713 -0.64716,-0.02713 -0.76882,0c-0.01357,0 -0.11108,0.02346 -0.29323,0.07083c-0.18192,0.04715 -0.32059,0.07107 -0.41465,0.07107c-0.02713,0 -0.07773,-0.02392 -0.15179,-0.07107c-0.07428,-0.04737 -0.13132,-0.07083 -0.1718,-0.07083c-0.06784,0 -0.2463,0.01012 -0.53608,0.03036c-0.29023,0.02024 -0.51584,0.03035 -0.67775,0.03035c-0.2831,0 -0.57334,0 -0.86978,0c-0.35071,-0.01357 -0.5531,-0.06071 -0.60692,-0.14144c-0.1212,-0.1619 -0.18214,-0.2831 -0.18214,-0.36405c-0.04048,-0.04071 -0.07406,-0.1012 -0.10096,-0.18215c0.10786,-0.55287 0.63383,-0.77526 1.57788,-0.6674c0.68764,0.06761 1.0924,0.06071 1.2136,-0.02047c0.05358,-1.44266 0.02024,-3.74911 -0.10096,-6.91822c0.05358,-0.59334 0.10763,-1.56431 0.16168,-2.91314c-0.09452,-0.01334 -0.22952,0.04761 -0.40453,0.18214c-0.20238,0.17548 -0.33071,0.27667 -0.38452,0.30335c-0.17548,0.06761 -0.35071,0.10119 -0.52596,0.10119c-0.22929,0 -0.39763,-0.07406 -0.50549,-0.22262c-0.06761,-0.08118 -0.10119,-0.17525 -0.10119,-0.28311c0,-0.24285 0.24286,-0.51907 0.72834,-0.82931c0.56644,-0.35048 0.90335,-0.66762 1.01144,-0.95096c0.2831,-0.22929 0.57954,-0.34405 0.89002,-0.34405c0.40453,0 0.64717,0.20238 0.72812,0.60691c-0.02713,0.05405 -0.05382,0.12856 -0.08096,0.22262c-0.05404,0.4181 -0.10096,1.2136 -0.14166,2.38718c0,0.06761 -0.0069,0.21572 -0.02024,0.44501c-0.01357,0.22952 -0.02023,0.35762 -0.02023,0.38452v2.16433c0,0.02713 0.01011,0.19226 0.03035,0.4956c0.02024,0.30334 0.03058,0.4687 0.03058,0.49561v4.61222c0.36406,0.06761 0.61336,0.07429 0.74836,0.02024c0.17525,-0.06716 0.33048,-0.10097 0.46524,-0.10097c0.31024,0 0.5731,0.17548 0.78906,0.52596c0.02668,0.04002 0.02668,0.18835 0,0.44455z" fill="#ffffff"/></g><g stroke="none" stroke-width="1"><path d="M329.01852,195.61309c0,0.41231 -0.13119,1.81168 -1.83458,2.52802c-0.39982,0.17076 -0.8392,0.25822 -1.30566,0.25822c-0.47478,0 -0.97872,-0.08746 -1.5368,-0.26863c-0.43314,-0.13952 -1.05994,-0.31444 -1.8679,-0.52268c-0.99122,0.69344 -1.74921,0.99122 -2.50303,0.99122c-0.78922,0 -1.53888,-0.31652 -2.11362,-0.88918c-0.43105,-0.42897 -0.67261,-1.01204 -0.67261,-1.6201v-0.40398c0,-0.25405 0.04373,-0.5914 0.20824,-0.95582c0.08538,-0.74341 0.26446,-1.47641 0.53309,-2.18442c0.07288,-0.20407 0.21032,-0.54559 0.59348,-1.36396c0.38524,-0.80588 0.96415,-1.64717 1.76586,-2.55509c-0.1416,0.01874 -0.27279,0.02707 -0.38941,0.02707c-1.39312,0 -2.80289,-1.02037 -2.80289,-2.96948c0,-0.66012 0.23323,-1.32648 0.83087,-2.37809c0.177,-0.31028 0.42272,-0.57474 0.72051,-0.77257c0.03957,-0.02707 0.08954,-0.06039 0.14577,-0.09995c0.15201,-0.12703 0.32902,-0.24989 0.54767,-0.38524c0.14368,-0.08746 0.2957,-0.16034 0.45396,-0.21449c0.37275,-0.12911 0.76007,-0.25613 1.15573,-0.37899c0.56849,-0.177 1.08701,-0.27279 1.58261,-0.29362h0.02499c1.12241,-0.03332 2.18859,0.17076 3.18189,0.61014c0.92874,0.39774 1.67424,1.08492 2.21774,2.0449c0.51018,0.90376 0.74341,1.81376 0.69552,2.7071c-0.00208,0.02499 -0.00416,0.04998 -0.00625,0.07705c-0.07288,0.82671 -0.35401,1.58886 -0.8392,2.26564c-0.02291,0.03332 -0.04998,0.06664 -0.07497,0.09995c-0.15201,0.19158 -0.41856,0.49144 -1.12241,1.12657c-0.41231,0.43105 -0.98913,1.01412 -1.75545,1.77419c-0.07497,0.10828 -0.15618,0.21657 -0.24572,0.32277c0.2832,0.07497 0.57266,0.17076 0.8746,0.28112l0.33318,0.12078c0.05622,-0.00208 0.11037,-0.00208 0.16451,-0.00208c1.18488,0 1.9033,0.51643 2.29896,0.95165c0.01041,0.01041 0.01874,0.02082 0.02915,0.03124c0.43314,0.49561 0.67261,1.14531 0.71009,1.93037c0.00208,0.0354 0.00208,0.07288 0.00208,0.11037z" fill="#00ff2a"/><path d="M326.72872,195.61247c0,0.15847 -0.1466,0.29903 -0.43959,0.42106c-0.28112,0.12203 -0.69614,0.09454 -1.24548,-0.08246c-0.54954,-0.17721 -1.35543,-0.40023 -2.41765,-0.66865c-0.50081,-0.06122 -0.93416,0.04873 -1.30045,0.32985c-0.63513,0.46396 -1.08721,0.69593 -1.35563,0.69593c-0.18304,0 -0.34797,-0.0733 -0.49457,-0.21948v-0.40253c0,-0.01229 0.0152,-0.03665 0.04602,-0.07309c0.0304,-0.03686 0.04852,-0.07642 0.05498,-0.1187c0.00583,-0.0429 0.02749,-0.11307 0.06414,-0.21032c0.04852,-0.67074 0.19533,-1.32294 0.43959,-1.95703c0.06101,-0.18263 0.23177,-0.57266 0.51289,-1.1703c0.36629,-0.76798 1.03161,-1.65196 1.99659,-2.65192c0.28071,-0.268 0.68365,-0.67053 1.20883,-1.20716c0.23177,-0.21928 0.46416,-0.43272 0.69614,-0.63992c0.32964,-0.31673 0.5004,-0.56662 0.51289,-0.74987c0.02416,-0.03665 0.05498,-0.09766 0.09142,-0.18283c0.01208,-0.13411 0.00604,-0.31673 -0.01833,-0.54871c-0.01229,-0.02436 -0.02749,-0.07934 -0.04581,-0.16451c-0.01833,-0.08538 -0.03977,-0.21948 -0.06414,-0.40253c-0.3665,-0.73154 -1.06868,-1.09742 -2.10633,-1.09742c-0.69614,0 -1.22736,0.17555 -1.59365,0.52601c-0.03665,0.01208 -0.08538,0.0304 -0.14639,0.05435c-0.20782,0.13306 -0.33589,0.26009 -0.38483,0.38087c-0.25634,0.59265 -0.53746,0.88876 -0.84253,0.88876c-0.34214,0 -0.51289,-0.22573 -0.51289,-0.67761c0,-0.20761 0.177,-0.62284 0.53122,-1.24548c0.0733,-0.04873 0.17076,-0.11599 0.29299,-0.20158c0.06101,-0.06101 0.17076,-0.14035 0.32985,-0.23823c0.3538,-0.12203 0.71697,-0.24093 1.08971,-0.35713c0.37233,-0.11599 0.7053,-0.18013 0.9983,-0.19241c0.78131,-0.02436 1.5141,0.1162 2.19796,0.42106c0.46396,0.19554 0.84253,0.55267 1.13573,1.0716c0.29299,0.51914 0.42731,1.00434 0.40294,1.45601c-0.03665,0.41523 -0.17721,0.79381 -0.42127,1.13573c-0.14639,0.18304 -0.45771,0.48853 -0.93395,0.91563c-0.42772,0.45209 -1.08701,1.11741 -1.97827,1.99659c-0.0733,0.17117 -0.23823,0.36025 -0.49457,0.56787c-0.01229,0.04894 -0.0429,0.12224 -0.09142,0.2199c-0.15889,0.28112 -0.38462,0.59244 -0.67782,0.93416c0.01208,0.10974 -0.03665,0.23823 -0.14639,0.38462c-0.13452,0.20782 -0.20158,0.32381 -0.20158,0.34818c-0.09787,0.23198 -0.22615,0.57411 -0.38483,1.02578c-0.03665,0.1466 -0.09787,0.37254 -0.18304,0.67782c0.28071,-0.08538 0.65304,-0.18929 1.1172,-0.31153c0.28091,-0.04852 0.55558,-0.0733 0.82421,-0.0733c0.54975,0 1.18446,0.13452 1.90497,0.40315c0.17076,0.06122 0.42731,0.15264 0.76923,0.27467c0.17076,-0.01208 0.34172,-0.01833 0.51289,-0.01833c0.28071,0 0.48207,0.06705 0.60431,0.20158c0.08496,0.09808 0.13411,0.27529 0.14639,0.53184z" fill="#ffffff"/></g></g></g></svg>