<svg version="1.1" xmlns="http://www.w3.org/2000/svg" xmlns:xlink="http://www.w3.org/1999/xlink" width="108.82737" height="195.51634" viewBox="0,0,108.82737,195.51634"><g transform="translate(-196.62033,-105.75787)"><g data-paper-data="{&quot;isPaintingLayer&quot;:true}" fill-rule="nonzero" stroke-linecap="butt" stroke-linejoin="miter" stroke-miterlimit="10" stroke-dasharray="" stroke-dashoffset="0" style="mix-blend-mode: normal"><path d="M222.44245,154.05111v-43.36819h44.60729v43.3682z" fill="#ffeca0" stroke="#000000" stroke-width="1"/><path d="M254.17383,126.73147v-9.91273h9.91273v9.91273z" fill="#000000" stroke="#000000" stroke-width="1"/><path d="M230.99718,138.99447v-0.44539h35.40898v0.44539z" fill="#000000" stroke="#000000" stroke-width="1"/><g stroke="#000000" stroke-width="1"><path d="M198.93915,204.63372l41.32713,-45.28805l9.71936,8.86929l-41.32713,45.28805z" fill="#ff8f00"/><path d="M205.76204,215.1653c-1.61542,1.77024 -4.63781,1.6423 -6.75068,-0.28578c-2.11288,-1.92808 -2.51614,-4.92619 -0.90072,-6.69643c1.61542,-1.77024 4.63781,-1.64229 6.75069,0.28579c2.11288,1.92808 2.51614,4.92618 0.90072,6.69643z" fill="#ffeca0"/></g><path d="M221.86657,114.275v-8.01713h46.09847v8.01713z" fill="#b59100" stroke="#b59100" stroke-width="1"/><path d="M203.14457,280.0138l32.11126,-58.38095l23.79392,13.08736l-32.11126,58.38096z" fill="#0061ff" stroke="#000000" stroke-width="0.5"/><path d="M200.21003,285.34903l3.10319,-5.64186l27.71869,15.24611l-3.10319,5.64186z" fill="#cc7400" stroke="#000000" stroke-width="1"/><path d="M255.66212,294.45853l-23.67492,-62.28135l25.38358,-9.64903l23.67492,62.28135z" fill="#0061ff" stroke="#000000" stroke-width="0.5"/><path d="M258.04731,299.61059l-2.07595,-6.09514l29.9457,-10.19925l2.07595,6.09514z" fill="#cc7400" stroke="#000000" stroke-width="1"/><path d="M230.29091,154.41009v72.53173h30.51512v-72.53173z" fill="#ff8f00" stroke="#000000" stroke-width="1"/><g stroke="#000000" stroke-width="1"><path d="M294.69084,198.69512l-56.56752,-23.64435l5.07436,-12.14006l56.56752,23.64435z" fill="#ff8f00"/><path d="M302.22836,188.96625c2.26023,0.79669 3.32166,3.62945 2.37077,6.32715c-0.95089,2.6977 -3.55402,4.23877 -5.81425,3.44207c-2.26023,-0.79669 -3.32167,-3.62946 -2.37078,-6.32716c0.95089,-2.6977 3.55403,-4.23876 5.81426,-3.44207z" fill="#ffeca0"/></g></g></g></svg>